<?xml version="1.0" encoding="UTF-8"?>
<svg version="1.1" xmlns="http://www.w3.org/2000/svg" width="512" height="512">
<path d="M0 0 C41.35492722 -1.16492753 84.40508057 7.41540461 121.02001953 27.03222656 C123.05623735 28.11175331 125.1099991 29.15008648 127.16992188 30.18359375 C147.46221246 40.46825297 165.61107028 54.30974273 181.97070312 70.06640625 C182.95973633 71.01459229 182.95973633 71.01459229 183.96875 71.98193359 C193.45875289 81.12806445 202.18782031 90.42877433 209.97070312 101.06640625 C210.81674505 102.19424471 211.66310049 103.32184806 212.50976562 104.44921875 C242.42333598 144.78957437 259.37370118 194.96047015 260.97070312 245.06640625 C260.99261719 245.73607422 261.01453125 246.40574219 261.03710938 247.09570312 C262.2020369 288.45063034 253.62170477 331.50078369 234.00488281 368.11572266 C232.92535607 370.15194048 231.8870229 372.20570223 230.85351562 374.265625 C220.5688564 394.55791559 206.72736664 412.70677341 190.97070312 429.06640625 C190.3385791 429.72576172 189.70645508 430.38511719 189.05517578 431.06445312 C179.90904492 440.55445601 170.60833505 449.28352344 159.97070312 457.06640625 C158.84286466 457.91244817 157.71526132 458.75880361 156.58789062 459.60546875 C116.247535 489.5190391 66.07663922 506.4694043 15.97070312 508.06640625 C15.30103516 508.08832031 14.63136719 508.11023438 13.94140625 508.1328125 C-48.17701841 509.88262728 -109.92091126 488.70303282 -157.02929688 448.06640625 C-157.774375 447.4321875 -158.51945312 446.79796875 -159.28710938 446.14453125 C-172.79530575 434.33058323 -185.45051913 421.57674416 -196.02929688 407.06640625 C-196.87377471 405.93967354 -197.71883108 404.81337422 -198.56445312 403.6875 C-237.97329697 350.56067586 -253.56267619 282.40274212 -244.63867188 217.21289062 C-236.91323468 166.17493286 -214.74909875 120.3080589 -180.01757812 82.27734375 C-178.43325868 80.51560542 -176.93538689 78.73551838 -175.46679688 76.87890625 C-172.93107644 73.95307498 -170.24739755 71.53257169 -167.30273438 69.03125 C-164.81251203 66.87904752 -162.42929262 64.63115451 -160.02929688 62.37890625 C-148.40925766 51.81669129 -135.522431 43.04456569 -122.02929688 35.06640625 C-121.34706055 34.65680664 -120.66482422 34.24720703 -119.96191406 33.82519531 C-83.84355295 12.27530217 -41.88240366 1.37055026 0 0 Z " fill="#C94638" transform="translate(249.029296875,1.93359375)"/>
<path d="M0 0 C0 73.92 0 147.84 0 224 C-73.92 224 -147.84 224 -224 224 C-223.35461477 215.60999204 -222.65276664 208.02651335 -220.8125 199.9375 C-220.59182861 198.95289795 -220.37115723 197.9682959 -220.14379883 196.95385742 C-214.9123021 174.18651531 -206.99375442 152.61654752 -196 132 C-195.65888184 131.35111816 -195.31776367 130.70223633 -194.96630859 130.03369141 C-185.28390425 111.71965133 -172.93465987 95.48210165 -158.98828125 80.2109375 C-157.4039618 78.44919917 -155.90609002 76.66911213 -154.4375 74.8125 C-151.90177957 71.88666873 -149.21810067 69.46616544 -146.2734375 66.96484375 C-143.78321515 64.81264127 -141.39999575 62.56474826 -139 60.3125 C-127.37996078 49.75028504 -114.49313413 40.97815944 -101 33 C-100.31776367 32.59040039 -99.63552734 32.18080078 -98.93261719 31.75878906 C-70.70077651 14.9143606 -33.37464649 0 0 0 Z " fill="#FEFDFD" transform="translate(228,4)"/>
<path d="M0 0 C8.39000796 0.64538523 15.97348665 1.34723336 24.0625 3.1875 C25.04710205 3.40817139 26.0317041 3.62884277 27.04614258 3.85620117 C49.81348469 9.0876979 71.38345248 17.00624558 92 28 C92.64888184 28.34111816 93.29776367 28.68223633 93.96630859 29.03369141 C109.0996309 37.03448998 123.0414158 46.82166858 136 58 C136.74507812 58.63421875 137.49015625 59.2684375 138.2578125 59.921875 C151.76600887 71.73582302 164.42122226 84.48966209 175 99 C175.84447783 100.12673271 176.68953421 101.25303203 177.53515625 102.37890625 C202.10459132 135.50081314 224 182.09743116 224 224 C150.08 224 76.16 224 0 224 C0 150.08 0 76.16 0 0 Z " fill="#FEFDFD" transform="translate(284,4)"/>
<path d="M0 0 C73.92 0 147.84 0 224 0 C223.38574702 7.37103571 222.79343801 14.26841373 221.3125 21.4375 C221.05194824 22.70702515 221.05194824 22.70702515 220.78613281 24.00219727 C215.88833186 47.0715188 208.14291204 69.20932639 197 90 C196.62649414 90.71220703 196.25298828 91.42441406 195.86816406 92.15820312 C187.56161109 107.96901086 177.67399305 122.46681547 166 136 C165.36578125 136.74507812 164.7315625 137.49015625 164.078125 138.2578125 C152.26417698 151.76600887 139.51033791 164.42122226 125 175 C123.87326729 175.84447783 122.74696797 176.68953421 121.62109375 177.53515625 C88.49197628 202.10994004 41.95143372 224 0 224 C0 150.08 0 76.16 0 0 Z " fill="#FEFDFD" transform="translate(284,284)"/>
<path d="M0 0 C73.92 0 147.84 0 224 0 C224 73.92 224 147.84 224 224 C216.62896429 223.38574702 209.73158627 222.79343801 202.5625 221.3125 C201.7161499 221.13879883 200.8697998 220.96509766 199.99780273 220.78613281 C176.9284812 215.88833186 154.79067361 208.14291204 134 197 C133.28779297 196.62649414 132.57558594 196.25298828 131.84179688 195.86816406 C116.03098914 187.56161109 101.53318453 177.67399305 88 166 C87.25492187 165.36578125 86.50984375 164.7315625 85.7421875 164.078125 C72.23399113 152.26417698 59.57877774 139.51033791 49 125 C48.15552217 123.87326729 47.31046579 122.74696797 46.46484375 121.62109375 C21.89540868 88.49918686 0 41.90256884 0 0 Z " fill="#FEFDFD" transform="translate(4,284)"/>
<path d="M0 0 C4.98169721 4.87549725 8.37824915 10.08308573 11.86572266 16.05761719 C12.63009429 17.36655836 13.40074872 18.67184833 14.17724609 19.97363281 C28.27656844 43.68690569 44 76.72845921 44 105 C-4.84 105 -53.68 105 -104 105 C-97.25 97.125 -97.25 97.125 -93.55801392 93.4377594 C-92.72517883 92.60354965 -91.89234375 91.7693399 -91.03427124 90.90985107 C-90.13947052 90.01864563 -89.2446698 89.12744019 -88.32275391 88.20922852 C-87.35614889 87.2429061 -86.38976506 86.27636239 -85.42358398 85.30961609 C-82.81881787 82.70456483 -80.2109955 80.10259317 -77.60258532 77.50119138 C-74.87016662 74.77505361 -72.14060801 72.04605514 -69.41073608 69.31736755 C-64.24929386 64.15902473 -59.0853094 59.00323481 -53.92039144 53.8483724 C-48.0368792 47.97606463 -42.15622992 42.10089337 -36.27581143 36.22548783 C-24.18704204 24.1471513 -12.0947081 12.07238971 0 0 Z " fill="#356DA6" transform="translate(462,109)"/>
<path d="M0 0 C5.92255484 4.9137933 11.35741807 10.21568254 16.79077148 15.66137695 C17.75710288 16.62635083 18.72364633 17.59111238 19.69038391 18.55567932 C22.29552309 21.15628953 24.89752558 23.76001645 27.49880862 26.36448312 C30.22524774 29.09346502 32.95413825 31.81999388 35.68263245 34.54692078 C40.25628486 39.11875894 44.82783548 43.6926908 49.39819336 48.26782227 C54.68771082 53.56280047 59.98084747 58.85414027 65.27584022 64.14364272 C69.8255529 68.6888263 74.37332521 73.23594444 78.91946274 77.78470391 C81.63352545 80.50032801 84.34826508 83.21526615 87.06475639 85.92846107 C89.61233353 88.4731618 92.15747543 91.02027277 94.7007122 93.56931114 C96.0849884 94.9555513 97.47174306 96.33931511 98.85855103 97.72302246 C99.673022 98.54031326 100.48749298 99.35760406 101.3266449 100.19966125 C102.04023887 100.91363225 102.75383284 101.62760324 103.48905087 102.36320972 C105 104 105 104 105 105 C56.16 105 7.32 105 -43 105 C-41.87244508 93.72445076 -41.87244508 93.72445076 -40.65234375 89.109375 C-40.38115723 88.08142822 -40.1099707 87.05348145 -39.83056641 85.99438477 C-39.53585449 84.92373779 -39.24114258 83.85309082 -38.9375 82.75 C-38.62731934 81.6168335 -38.31713867 80.48366699 -37.99755859 79.31616211 C-30.02296695 50.84372469 -18.17109083 23.50060071 0 0 Z " fill="#356DA6" transform="translate(49,109)"/>
<path d="M0 0 C7.875 6.75 7.875 6.75 11.5622406 10.44198608 C12.39645035 11.27482117 13.2306601 12.10765625 14.09014893 12.96572876 C14.98135437 13.86052948 15.87255981 14.7553302 16.79077148 15.67724609 C17.7570939 16.64385111 18.72363761 17.61023494 19.69038391 18.57641602 C22.29543517 21.18118213 24.89740683 23.7890045 27.49880862 26.39741468 C30.22494639 29.12983338 32.95394486 31.85939199 35.68263245 34.58926392 C40.84097527 39.75070614 45.99676519 44.9146906 51.1516276 50.07960856 C57.02393537 55.9631208 62.89910663 61.84377008 68.77451217 67.72418857 C80.8528487 79.81295796 92.92761029 91.9052919 105 104 C99.58844617 109.52411777 93.62612533 113.14815679 87 117 C86.28924316 117.42087891 85.57848633 117.84175781 84.84619141 118.27539062 C61.12082728 132.25375913 28.30024319 148 0 148 C0 99.16 0 50.32 0 0 Z " fill="#356DA6" transform="translate(298,358)"/>
<path d="M0 0 C0 48.84 0 97.68 0 148 C-11.27554924 146.87244508 -11.27554924 146.87244508 -15.890625 145.65234375 C-16.91873291 145.38107666 -17.94684082 145.10980957 -19.00610352 144.83032227 C-20.07658936 144.53569092 -21.1470752 144.24105957 -22.25 143.9375 C-23.94757446 143.47331665 -23.94757446 143.47331665 -25.67944336 142.99975586 C-54.01267243 135.07025883 -81.70634521 123.26850679 -105 105 C-100.0862067 99.07744516 -94.78431746 93.64258193 -89.33862305 88.20922852 C-88.37364917 87.24289712 -87.40888762 86.27635367 -86.44432068 85.30961609 C-83.84371047 82.70447691 -81.23998355 80.10247442 -78.63551688 77.50119138 C-75.90653498 74.77475226 -73.18000612 72.04586175 -70.45307922 69.31736755 C-65.88124106 64.74371514 -61.3073092 60.17216452 -56.73217773 55.60180664 C-51.43719953 50.31228918 -46.14585973 45.01915253 -40.85635728 39.72415978 C-36.3111737 35.1744471 -31.76405556 30.62667479 -27.21529609 26.08053726 C-24.49967199 23.36647455 -21.78473385 20.65173492 -19.07153893 17.93524361 C-16.5268382 15.38766647 -13.97972723 12.84252457 -11.43068886 10.2992878 C-10.0444487 8.9150116 -8.66068489 7.52825694 -7.27697754 6.14144897 C-6.45968674 5.326978 -5.64239594 4.51250702 -4.80033875 3.6733551 C-4.08636775 2.95976113 -3.37239676 2.24616716 -2.63679028 1.51094913 C-1 0 -1 0 0 0 Z " fill="#356DA6" transform="translate(214,358)"/>
<path d="M0 0 C48.84 0 97.68 0 148 0 C146.87244508 11.27554924 146.87244508 11.27554924 145.65234375 15.890625 C145.38107666 16.91881348 145.10980957 17.94700195 144.83032227 19.00634766 C144.53569092 20.07675293 144.24105957 21.1471582 143.9375 22.25 C143.47331665 23.94648682 143.47331665 23.94648682 142.99975586 25.67724609 C138.48833455 41.78930389 132.94744835 57.27906242 125.03857422 72.04052734 C123.9454639 74.10289298 122.89432716 76.18324565 121.84765625 78.26953125 C117.00403474 87.81991256 111.47295951 96.4729907 105 105 C99.07744516 100.0862067 93.64258193 94.78431746 88.20922852 89.33862305 C87.24289712 88.37364917 86.27635367 87.40888762 85.30961609 86.44432068 C82.70447691 83.84371047 80.10247442 81.23998355 77.50119138 78.63551688 C74.77475226 75.90653498 72.04586175 73.18000612 69.31736755 70.45307922 C64.74371514 65.88124106 60.17216452 61.3073092 55.60180664 56.73217773 C50.31228918 51.43719953 45.01915253 46.14585973 39.72415978 40.85635728 C35.1744471 36.3111737 30.62667479 31.76405556 26.08053726 27.21529609 C23.36647455 24.49967199 20.65173492 21.78473385 17.93524361 19.07153893 C15.38766647 16.5268382 12.84252457 13.97972723 10.2992878 11.43068886 C8.9150116 10.0444487 7.52825694 8.66068489 6.14144897 7.27697754 C5.326978 6.45968674 4.51250702 5.64239594 3.6733551 4.80033875 C2.95976113 4.08636775 2.24616716 3.37239676 1.51094913 2.63679028 C0 1 0 1 0 0 Z " fill="#356DA6" transform="translate(358,298)"/>
<path d="M0 0 C0 48.84 0 97.68 0 148 C-7.875 141.25 -7.875 141.25 -11.5622406 137.55801392 C-12.39645035 136.72517883 -13.2306601 135.89234375 -14.09014893 135.03427124 C-15.42695709 133.69207016 -15.42695709 133.69207016 -16.79077148 132.32275391 C-17.7570939 131.35614889 -18.72363761 130.38976506 -19.69038391 129.42358398 C-22.29543517 126.81881787 -24.89740683 124.2109955 -27.49880862 121.60258532 C-30.22494639 118.87016662 -32.95394486 116.14060801 -35.68263245 113.41073608 C-40.84097527 108.24929386 -45.99676519 103.0853094 -51.1516276 97.92039144 C-57.02393537 92.0368792 -62.89910663 86.15622992 -68.77451217 80.27581143 C-80.8528487 68.18704204 -92.92761029 56.0947081 -105 44 C-100.12450275 39.01830279 -94.91691427 35.62175085 -88.94238281 32.13427734 C-87.63344164 31.36990571 -86.32815167 30.59925128 -85.02636719 29.82275391 C-61.31309431 15.72343156 -28.27154079 0 0 0 Z " fill="#356DA6" transform="translate(214,6)"/>
<path d="M0 0 C11.27554924 1.12755492 11.27554924 1.12755492 15.890625 2.34765625 C16.91881348 2.61892334 17.94700195 2.89019043 19.00634766 3.16967773 C20.07675293 3.46430908 21.1471582 3.75894043 22.25 4.0625 C23.38099121 4.37195557 24.51198242 4.68141113 25.67724609 5.00024414 C41.78930389 9.51166545 57.27906242 15.05255165 72.04052734 22.96142578 C74.10289298 24.0545361 76.18324565 25.10567284 78.26953125 26.15234375 C87.81991256 30.99596526 96.4729907 36.52704049 105 43 C100.0862067 48.92255484 94.78431746 54.35741807 89.33862305 59.79077148 C88.37364917 60.75710288 87.40888762 61.72364633 86.44432068 62.69038391 C83.84371047 65.29552309 81.23998355 67.89752558 78.63551688 70.49880862 C75.90653498 73.22524774 73.18000612 75.95413825 70.45307922 78.68263245 C65.88124106 83.25628486 61.3073092 87.82783548 56.73217773 92.39819336 C51.43719953 97.68771082 46.14585973 102.98084747 40.85635728 108.27584022 C36.3111737 112.8255529 31.76405556 117.37332521 27.21529609 121.91946274 C24.49967199 124.63352545 21.78473385 127.34826508 19.07153893 130.06475639 C16.5268382 132.61233353 13.97972723 135.15747543 11.43068886 137.7007122 C10.0444487 139.0849884 8.66068489 140.47174306 7.27697754 141.85855103 C6.05104134 143.08025749 6.05104134 143.08025749 4.80033875 144.3266449 C4.08636775 145.04023887 3.37239676 145.75383284 2.63679028 146.48905087 C1 148 1 148 0 148 C0 99.16 0 50.32 0 0 Z " fill="#356DA6" transform="translate(298,6)"/>
<path d="M0 0 C48.84 0 97.68 0 148 0 C141.25 7.875 141.25 7.875 137.55801392 11.5622406 C136.72517883 12.39645035 135.89234375 13.2306601 135.03427124 14.09014893 C133.69207016 15.42695709 133.69207016 15.42695709 132.32275391 16.79077148 C131.35614889 17.7570939 130.38976506 18.72363761 129.42358398 19.69038391 C126.81881787 22.29543517 124.2109955 24.89740683 121.60258532 27.49880862 C118.87016662 30.22494639 116.14060801 32.95394486 113.41073608 35.68263245 C108.24929386 40.84097527 103.0853094 45.99676519 97.92039144 51.1516276 C92.0368792 57.02393537 86.15622992 62.89910663 80.27581143 68.77451217 C68.18704204 80.8528487 56.0947081 92.92761029 44 105 C39.01830279 100.12450275 35.62175085 94.91691427 32.13427734 88.94238281 C31.36990571 87.63344164 30.59925128 86.32815167 29.82275391 85.02636719 C15.72343156 61.31309431 0 28.27154079 0 0 Z " fill="#356DA6" transform="translate(6,298)"/>
<path d="M0 0 C4.56260073 36.33958475 4.56260073 36.33958475 -5.9167881 49.90914774 C-11.2409011 56.261924 -17.30526256 61.9077474 -23.42377472 67.47953224 C-26.7478542 70.54891285 -29.95481069 73.73667309 -33.17724609 76.9119873 C-39.26239942 82.8741012 -45.44167273 88.7271094 -51.66438103 94.54514265 C-58.75750302 101.18694321 -65.73373586 107.94645441 -72.70388412 114.71682835 C-87.01214265 128.60994795 -101.45655838 142.3535342 -116 156 C-120.14602551 153.59916299 -123.5810248 150.83377293 -127.0625 147.5625 C-127.57876953 147.08490234 -128.09503906 146.60730469 -128.62695312 146.11523438 C-131.47778658 143.46777248 -134.26878038 140.77051775 -137 138 C-135.40131776 134.04308997 -132.6580115 131.3810141 -129.67906189 128.43182373 C-129.13086259 127.88121001 -128.58266329 127.3305963 -128.01785189 126.76329732 C-126.1793076 124.91911622 -124.33370021 123.08217169 -122.48803711 121.24511719 C-121.16876179 119.92476902 -119.84991953 118.60398803 -118.53147888 117.2828064 C-114.94943978 113.69591756 -111.36117796 110.11531363 -107.77164531 106.53592587 C-104.02120544 102.7942604 -100.27602936 99.04733312 -96.53016663 95.30108643 C-90.24120778 89.01306424 -83.94838643 82.72892869 -77.65307617 76.44726562 C-70.36404791 69.17397995 -63.08027667 61.89546364 -55.79948229 54.61393619 C-48.80521927 47.61906395 -41.80810864 40.62704797 -34.80938911 33.63663483 C-31.82575582 30.6565414 -28.84298179 27.67559175 -25.8608532 24.69399261 C-22.35436262 21.18850276 -18.84534647 17.68556084 -15.33431435 14.1846199 C-14.04220375 12.8954426 -12.75095081 11.60540507 -11.46059418 10.3144722 C-9.70734714 8.56073832 -7.95108173 6.81008652 -6.19395447 5.0602417 C-5.67684448 4.54158311 -5.15973449 4.02292451 -4.6269545 3.48854899 C-1.11417884 0 -1.11417884 0 0 0 Z " fill="#CA483A" transform="translate(214,298)"/>
<path d="M0 0 C36.33958475 -4.56260073 36.33958475 -4.56260073 49.90914774 5.9167881 C56.261924 11.2409011 61.9077474 17.30526256 67.47953224 23.42377472 C70.54891285 26.7478542 73.73667309 29.95481069 76.9119873 33.17724609 C82.8741012 39.26239942 88.7271094 45.44167273 94.54514265 51.66438103 C101.18694321 58.75750302 107.94645441 65.73373586 114.71682835 72.70388412 C128.60994795 87.01214265 142.3535342 101.45655838 156 116 C153.59916299 120.14602551 150.83377293 123.5810248 147.5625 127.0625 C147.08490234 127.57876953 146.60730469 128.09503906 146.11523438 128.62695312 C143.46777248 131.47778658 140.77051775 134.26878038 138 137 C134.04308997 135.40131776 131.3810141 132.6580115 128.43182373 129.67906189 C127.88121001 129.13086259 127.3305963 128.58266329 126.76329732 128.01785189 C124.91911622 126.1793076 123.08217169 124.33370021 121.24511719 122.48803711 C119.92476902 121.16876179 118.60398803 119.84991953 117.2828064 118.53147888 C113.69591756 114.94943978 110.11531363 111.36117796 106.53592587 107.77164531 C102.7942604 104.02120544 99.04733312 100.27602936 95.30108643 96.53016663 C89.01306424 90.24120778 82.72892869 83.94838643 76.44726562 77.65307617 C69.17397995 70.36404791 61.89546364 63.08027667 54.61393619 55.79948229 C47.61906395 48.80521927 40.62704797 41.80810864 33.63663483 34.80938911 C30.6565414 31.82575582 27.67559175 28.84298179 24.69399261 25.8608532 C21.18850276 22.35436262 17.68556084 18.84534647 14.1846199 15.33431435 C12.8954426 14.04220375 11.60540507 12.75095081 10.3144722 11.46059418 C8.56073832 9.70734714 6.81008652 7.95108173 5.0602417 6.19395447 C4.54158311 5.67684448 4.02292451 5.15973449 3.48854899 4.6269545 C0 1.11417884 0 1.11417884 0 0 Z " fill="#CA483A" transform="translate(298,298)"/>
<path d="M0 0 C3.95691003 1.59868224 6.6189859 4.3419885 9.56817627 7.32093811 C10.11878999 7.86913741 10.6694037 8.41733671 11.23670268 8.98214811 C13.08088378 10.8206924 14.91782831 12.66629979 16.75488281 14.51196289 C18.07523098 15.83123821 19.39601197 17.15008047 20.7171936 18.46852112 C24.30408244 22.05056022 27.88468637 25.63882204 31.46407413 29.22835469 C35.2057396 32.97879456 38.95266688 36.72397064 42.69891357 40.46983337 C48.98693576 46.75879222 55.27107131 53.05161357 61.55273438 59.34692383 C68.82602005 66.63595209 76.10453636 73.91972333 83.38606381 81.20051771 C90.38093605 88.19478073 97.37295203 95.19189136 104.36336517 102.19061089 C107.3434586 105.17424418 110.32440825 108.15701821 113.30600739 111.1391468 C116.81149724 114.64563738 120.31443916 118.15465353 123.8153801 121.66568565 C125.1045574 122.95779625 126.39459493 124.24904919 127.6855278 125.53940582 C129.43926168 127.29265286 131.18991348 129.04891827 132.9397583 130.80604553 C133.45841689 131.32315552 133.97707549 131.84026551 134.51145101 132.3730455 C138 135.88582116 138 135.88582116 138 137 C101.66041525 141.56260073 101.66041525 141.56260073 88.09085226 131.0832119 C81.738076 125.7590989 76.0922526 119.69473744 70.52046776 113.57622528 C67.45108715 110.2521458 64.26332691 107.04518931 61.0880127 103.82275391 C55.1258988 97.73760058 49.2728906 91.55832727 43.45485735 85.33561897 C36.81305679 78.24249698 30.05354559 71.26626414 23.28317165 64.29611588 C9.39005205 49.98785735 -4.3535342 35.54344162 -18 21 C-15.59916299 16.85397449 -12.83377293 13.4189752 -9.5625 9.9375 C-9.08490234 9.42123047 -8.60730469 8.90496094 -8.11523438 8.37304688 C-5.46777248 5.52221342 -2.77051775 2.73121962 0 0 Z " fill="#CA483A" transform="translate(76,77)"/>
<path d="M0 0 C4.14602551 2.40083701 7.5810248 5.16622707 11.0625 8.4375 C11.57876953 8.91509766 12.09503906 9.39269531 12.62695312 9.88476562 C15.47778658 12.53222752 18.26878038 15.22948225 21 18 C19.40131776 21.95691003 16.6580115 24.6189859 13.67906189 27.56817627 C13.13086259 28.11878999 12.58266329 28.6694037 12.01785189 29.23670268 C10.1793076 31.08088378 8.33370021 32.91782831 6.48803711 34.75488281 C5.16876179 36.07523098 3.84991953 37.39601197 2.53147888 38.7171936 C-1.05056022 42.30408244 -4.63882204 45.88468637 -8.22835469 49.46407413 C-11.97879456 53.2057396 -15.72397064 56.95266688 -19.46983337 60.69891357 C-25.75879222 66.98693576 -32.05161357 73.27107131 -38.34692383 79.55273438 C-45.63595209 86.82602005 -52.91972333 94.10453636 -60.20051771 101.38606381 C-67.19478073 108.38093605 -74.19189136 115.37295203 -81.19061089 122.36336517 C-84.17424418 125.3434586 -87.15701821 128.32440825 -90.1391468 131.30600739 C-93.64563738 134.81149724 -97.15465353 138.31443916 -100.66568565 141.8153801 C-101.95779625 143.1045574 -103.24904919 144.39459493 -104.53940582 145.6855278 C-106.29265286 147.43926168 -108.04891827 149.18991348 -109.80604553 150.9397583 C-110.32315552 151.45841689 -110.84026551 151.97707549 -111.3730455 152.51145101 C-114.88582116 156 -114.88582116 156 -116 156 C-120.56260073 119.66041525 -120.56260073 119.66041525 -110.0832119 106.09085226 C-104.7590989 99.738076 -98.69473744 94.0922526 -92.57622528 88.52046776 C-89.2521458 85.45108715 -86.04518931 82.26332691 -82.82275391 79.0880127 C-76.73760058 73.1258988 -70.55832727 67.2728906 -64.33561897 61.45485735 C-57.24249698 54.81305679 -50.26626414 48.05354559 -43.29611588 41.28317165 C-28.98785735 27.39005205 -14.54344162 13.6464658 0 0 Z " fill="#CA483A" transform="translate(414,58)"/>
<path d="M0 0 C0.99 0.33 1.98 0.66 3 1 C0.42215154 3.64752004 -1.91648098 5.94432065 -5 8 C-3.62845496 5.04590299 -2.01136276 2.55991624 0 0 Z " fill="#D2DCE8" transform="translate(57,98)"/>
<g fill="#999999">
  <path d="M80 0V693H548V562H236V426H513V298H236V131H571V0Z" transform="translate(51.70000000000002, 359.95) scale(0.3, -0.3)"/>
  <path d="M545 0Q478 119 400.0 235.0Q322 351 234 454V0H80V693H207Q240 660 280.0 612.0Q320 564 361.5 509.5Q403 455 444.0 396.5Q485 338 521 284V693H676V0Z" transform="translate(233.5, 359.95) scale(0.3, -0.3)"/>
</g>
</svg>
