<?xml version="1.0" encoding="UTF-8"?>
<svg version="1.1" xmlns="http://www.w3.org/2000/svg" width="512" height="512">
<path d="M0 0 C2.94846068 0.00314748 5.8959015 -0.02035196 8.84423828 -0.0456543 C22.23420356 -0.09027055 35.14581187 1.11142326 48.34814453 3.31567383 C50.05357422 3.59785767 50.05357422 3.59785767 51.79345703 3.88574219 C54.389253 4.35197518 56.96081163 4.87071381 59.53564453 5.44067383 C60.92456909 5.74763184 60.92456909 5.74763184 62.34155273 6.06079102 C106.79224038 16.39661722 147.52755017 38.70475281 180.34814453 70.31567383 C181.33717773 71.26385986 181.33717773 71.26385986 182.34619141 72.23120117 C191.83444759 81.37564862 200.57434893 90.67301392 208.34814453 101.31567383 C209.20620605 102.46672399 210.06427904 103.6177656 210.92236328 104.76879883 C216.9599185 112.95843364 222.34271755 121.46105658 227.34814453 130.31567383 C227.75033203 131.02288574 228.15251953 131.73009766 228.56689453 132.45874023 C243.31925991 158.6614767 252.85450259 187.6019818 257.34814453 217.31567383 C257.52474609 218.438125 257.70134766 219.56057617 257.88330078 220.71704102 C259.54020313 232.33015126 259.74687966 243.84747328 259.72314453 255.56567383 C259.7223288 257.08369598 259.7223288 257.08369598 259.72149658 258.63238525 C259.68076409 275.16097955 258.77738675 291.09481382 255.34814453 307.31567383 C255.12852051 308.35755859 254.90889648 309.39944336 254.68261719 310.47290039 C244.58499668 356.76616694 222.22585695 399.17981104 189.34814453 433.31567383 C188.71602051 433.9750293 188.08389648 434.63438477 187.43261719 435.3137207 C178.28816974 444.80197688 168.99080444 453.54187823 158.34814453 461.31567383 C157.19709437 462.17373534 156.04605276 463.03180834 154.89501953 463.88989258 C146.70538472 469.92744779 138.20276177 475.31024685 129.34814453 480.31567383 C128.64093262 480.71786133 127.9337207 481.12004883 127.20507812 481.53442383 C104.08553516 494.55092481 78.936447 503.28422583 52.97314453 508.62817383 C52.26262939 508.77552979 51.55211426 508.92288574 50.82006836 509.07470703 C35.12975265 512.07027452 19.40438831 512.72404263 3.47314453 512.69067383 C2.48980133 512.69013 1.50645813 512.68958618 0.49331665 512.68902588 C-64.52351764 512.52439796 -126.77186154 487.46780512 -173.65185547 442.31567383 C-174.31121094 441.6835498 -174.97056641 441.05142578 -175.64990234 440.40014648 C-185.13815852 431.25569904 -193.87805987 421.95833373 -201.65185547 411.31567383 C-202.50991699 410.16462366 -203.36798998 409.01358205 -204.22607422 407.86254883 C-210.26362943 399.67291402 -215.64642849 391.17029107 -220.65185547 382.31567383 C-221.05404297 381.60846191 -221.45623047 380.90125 -221.87060547 380.17260742 C-236.62297084 353.96987095 -246.15821352 325.02936586 -250.65185547 295.31567383 C-250.91675781 293.63199707 -250.91675781 293.63199707 -251.18701172 291.91430664 C-252.84391407 280.3011964 -253.0505906 268.78387438 -253.02685547 257.06567383 C-253.02631165 256.05365906 -253.02576782 255.04164429 -253.02520752 253.9989624 C-252.98447503 237.47036811 -252.08109769 221.53653384 -248.65185547 205.31567383 C-248.43223145 204.27378906 -248.21260742 203.2319043 -247.98632812 202.15844727 C-237.88870762 155.86518071 -215.52956789 113.45153662 -182.65185547 79.31567383 C-182.01973145 78.65631836 -181.38760742 77.99696289 -180.73632812 77.31762695 C-171.59188068 67.82937077 -162.29451538 59.08946943 -151.65185547 51.31567383 C-150.5008053 50.45761231 -149.34976369 49.59953932 -148.19873047 48.74145508 C-140.00909566 42.70389986 -131.50647271 37.32110081 -122.65185547 32.31567383 C-121.94464355 31.91348633 -121.23743164 31.51129883 -120.50878906 31.09692383 C-94.30394366 16.34337111 -65.36646428 6.81437176 -35.65185547 2.31567383 C-34.53375488 2.13834717 -33.4156543 1.96102051 -32.26367188 1.77832031 C-21.50231249 0.23401232 -10.86244537 -0.02412288 0 0 Z " fill="#FFDA43" transform="translate(252.65185546875,-0.315673828125)"/>
<path d="M0 0 C2.94846068 0.00314748 5.8959015 -0.02035196 8.84423828 -0.0456543 C22.23420356 -0.09027055 35.14581187 1.11142326 48.34814453 3.31567383 C50.05357422 3.59785767 50.05357422 3.59785767 51.79345703 3.88574219 C54.389253 4.35197518 56.96081163 4.87071381 59.53564453 5.44067383 C60.92456909 5.74763184 60.92456909 5.74763184 62.34155273 6.06079102 C106.79224038 16.39661722 147.52755017 38.70475281 180.34814453 70.31567383 C181.33717773 71.26385986 181.33717773 71.26385986 182.34619141 72.23120117 C191.83444759 81.37564862 200.57434893 90.67301392 208.34814453 101.31567383 C209.20620605 102.46672399 210.06427904 103.6177656 210.92236328 104.76879883 C219.07523188 115.82774804 225.95618669 127.54568424 232.47314453 139.62817383 C232.85664063 140.32515381 233.24013672 141.02213379 233.63525391 141.74023438 C238.03086919 150.04687244 240.87260953 158.37858384 244.34814453 167.31567383 C85.28814453 167.31567383 -73.77185547 167.31567383 -237.65185547 167.31567383 C-228.26358183 143.84498973 -228.26358183 143.84498973 -224.52685547 136.87817383 C-224.07439453 136.02602295 -223.62193359 135.17387207 -223.15576172 134.29589844 C-212.23880204 114.19993846 -198.49987927 95.77016309 -182.65185547 79.31567383 C-182.01973145 78.65631836 -181.38760742 77.99696289 -180.73632812 77.31762695 C-171.59188068 67.82937077 -162.29451538 59.08946943 -151.65185547 51.31567383 C-150.5008053 50.45761231 -149.34976369 49.59953932 -148.19873047 48.74145508 C-140.00909566 42.70389986 -131.50647271 37.32110081 -122.65185547 32.31567383 C-121.94464355 31.91348633 -121.23743164 31.51129883 -120.50878906 31.09692383 C-94.30394366 16.34337111 -65.36646428 6.81437176 -35.65185547 2.31567383 C-34.53375488 2.13834717 -33.4156543 1.96102051 -32.26367188 1.77832031 C-21.50231249 0.23401232 -10.86244537 -0.02412288 0 0 Z " fill="#D80027" transform="translate(252.65185546875,-0.315673828125)"/>
<path d="M0 0 C159.06 0 318.12 0 482 0 C472.61172636 23.4706841 472.61172636 23.4706841 468.875 30.4375 C468.19630859 31.71572632 468.19630859 31.71572632 467.50390625 33.01977539 C456.58694657 53.11573537 442.8480238 71.54551074 427 88 C426.36787598 88.65935547 425.73575195 89.31871094 425.08447266 89.99804688 C415.94002521 99.48630305 406.64265991 108.2262044 396 116 C394.84894983 116.85806152 393.69790823 117.71613451 392.546875 118.57421875 C384.35724019 124.61177396 375.85461724 129.99457302 367 135 C365.93918213 135.60328125 365.93918213 135.60328125 364.85693359 136.21875 C341.73739063 149.23525099 316.58830247 157.968552 290.625 163.3125 C289.91448486 163.45985596 289.20396973 163.60721191 288.47192383 163.7590332 C272.78160812 166.75460069 257.05624378 167.4083688 241.125 167.375 C240.1416568 167.37445618 239.1583136 167.37391235 238.14517212 167.37335205 C173.12833783 167.20872413 110.87999393 142.15213129 64 97 C63.34064453 96.36787598 62.68128906 95.73575195 62.00195312 95.08447266 C52.51369695 85.94002521 43.7737956 76.64265991 36 66 C35.14193848 64.84894983 34.28386549 63.69790823 33.42578125 62.546875 C25.27291265 51.48792578 18.39195784 39.76998959 11.875 27.6875 C11.49150391 26.99052002 11.10800781 26.29354004 10.71289062 25.57543945 C6.31727534 17.26880138 3.475535 8.93708999 0 0 Z " fill="#D80027" transform="translate(15,345)"/>
</svg>
