<?xml version="1.0" encoding="UTF-8"?>
<svg version="1.1" xmlns="http://www.w3.org/2000/svg" width="512" height="512">
<path d="M0 0 C0.96494385 0.00021149 1.9298877 0.00042297 2.92407227 0.00064087 C18.83060339 0.0353275 34.08622663 1.04865983 49.6875 4.375 C51.01297852 4.64787842 51.01297852 4.64787842 52.36523438 4.92626953 C87.52787066 12.35022991 120.57301045 28.04758056 148.6875 50.375 C149.56019531 51.055625 150.43289063 51.73625 151.33203125 52.4375 C200.3739677 91.49872025 232.63594184 149.24450811 239.94775391 211.59425354 C240.56697901 217.31872189 240.85872572 222.9746558 240.890625 228.73046875 C240.89768463 229.58643646 240.90474426 230.44240417 240.91201782 231.3243103 C241.14173834 267.36350193 241.14173834 267.36350193 237.6875 284.375 C237.39746094 285.83800537 237.39746094 285.83800537 237.1015625 287.33056641 C229.55736521 324.23077212 214.1504725 358.85290823 190.6875 388.375 C189.98367188 389.27089844 189.27984375 390.16679687 188.5546875 391.08984375 C159.94425503 426.82724776 122.121402 453.67571699 78.6875 468.375 C77.4809375 468.78806396 77.4809375 468.78806396 76.25 469.20947266 C55.88540724 476.06516653 34.33518106 480.42075528 12.81640625 480.61328125 C11.9045607 480.6230751 10.99271515 480.63286896 10.05323792 480.64295959 C-10.0566878 480.81447623 -29.57636719 480.7087698 -49.3125 476.375 C-50.7975 476.05354004 -50.7975 476.05354004 -52.3125 475.72558594 C-86.17288742 468.15329227 -119.14878243 453.04361832 -146.3125 431.375 C-147.22128906 430.65828125 -148.13007813 429.9415625 -149.06640625 429.203125 C-163.14378788 417.90918014 -176.11962192 405.55137869 -187.3125 391.375 C-188.08207031 390.43398438 -188.85164063 389.49296875 -189.64453125 388.5234375 C-212.46817032 359.98467071 -227.36240328 325.87337759 -235.3125 290.375 C-235.52567871 289.4562207 -235.73885742 288.53744141 -235.95849609 287.59082031 C-242.7552182 257.00826581 -242.3454498 220.86189426 -235.3125 190.375 C-234.99901611 188.94389893 -234.99901611 188.94389893 -234.67919922 187.48388672 C-226.58101654 151.14215456 -210.18257947 116.96571713 -186.3125 88.375 C-185.83844727 87.79943359 -185.36439453 87.22386719 -184.87597656 86.63085938 C-174.43991892 73.98489507 -163.27103777 62.46194034 -150.3125 52.375 C-149.34183594 51.58738281 -148.37117188 50.79976562 -147.37109375 49.98828125 C-126.5474588 33.38670996 -102.40026836 21.06597239 -77.3125 12.375 C-76.27996094 12.00834229 -76.27996094 12.00834229 -75.2265625 11.63427734 C-66.72975358 8.64205272 -58.11767766 6.55910865 -49.3125 4.6875 C-48.3639917 4.48487549 -47.4154834 4.28225098 -46.43823242 4.07348633 C-30.91409516 0.91435932 -15.79860598 -0.03205721 0 0 Z " fill="#FFFFFF" transform="translate(255.3125,15.625)"/>
<path d="M0 0 C149.82 0 299.64 0 454 0 C446.85922086 19.0420777 446.85922086 19.0420777 443.375 26.3125 C442.95677979 27.18640381 442.53855957 28.06030762 442.10766602 28.96069336 C435.2689725 42.89787294 426.65020685 55.85770677 417 68 C416.29617188 68.89589844 415.59234375 69.79179687 414.8671875 70.71484375 C386.25675503 106.45224776 348.433902 133.30071699 305 148 C304.195625 148.27537598 303.39125 148.55075195 302.5625 148.83447266 C282.19790724 155.69016653 260.64768106 160.04575528 239.12890625 160.23828125 C237.76113792 160.25297203 237.76113792 160.25297203 236.36573792 160.26795959 C216.2558122 160.43947623 196.73613281 160.3337698 177 156 C176.01 155.78569336 175.02 155.57138672 174 155.35058594 C140.13961258 147.77829227 107.16371757 132.66861832 80 111 C79.09121094 110.28328125 78.18242188 109.5665625 77.24609375 108.828125 C63.16871212 97.53418014 50.19287808 85.17637869 39 71 C38.23042969 70.05898438 37.46085937 69.11796875 36.66796875 68.1484375 C23.66087701 51.88431956 0 21.45630501 0 0 Z " fill="#2A4796" transform="translate(29,336)"/>
<path d="M0 0 C0.96494385 0.00021149 1.9298877 0.00042297 2.92407227 0.00064087 C18.83060339 0.0353275 34.08622663 1.04865983 49.6875 4.375 C51.01297852 4.64787842 51.01297852 4.64787842 52.36523438 4.92626953 C87.52787066 12.35022991 120.57301045 28.04758056 148.6875 50.375 C149.56019531 51.055625 150.43289063 51.73625 151.33203125 52.4375 C186.11094929 80.13842447 212.99554756 117.31788423 227.6875 159.375 C227.6875 159.705 227.6875 160.035 227.6875 160.375 C77.8675 160.375 -71.9525 160.375 -226.3125 160.375 C-212.33642908 118.44678725 -185.26656692 79.58328491 -150.3125 52.375 C-149.34183594 51.58738281 -148.37117188 50.79976562 -147.37109375 49.98828125 C-126.5474588 33.38670996 -102.40026836 21.06597239 -77.3125 12.375 C-76.27996094 12.00834229 -76.27996094 12.00834229 -75.2265625 11.63427734 C-66.72975358 8.64205272 -58.11767766 6.55910865 -49.3125 4.6875 C-48.3639917 4.48487549 -47.4154834 4.28225098 -46.43823242 4.07348633 C-30.91409516 0.91435932 -15.79860598 -0.03205721 0 0 Z " fill="#C0382A" transform="translate(255.3125,15.625)"/>
</svg>
